<?xml version="1.0" encoding="UTF-8" standalone="no"?>
<svg
   fill="#fbf1c7"
   class="mercado-match"
   width="20"
   height="20"
   focusable="false"
   version="1.1"
   id="svg4"
   sodipodi:docname="linkedin.svg"
   inkscape:version="1.2 (dc2aedaf03, 2022-05-15)"
   xmlns:inkscape="http://www.inkscape.org/namespaces/inkscape"
   xmlns:sodipodi="http://sodipodi.sourceforge.net/DTD/sodipodi-0.dtd"
   xmlns="http://www.w3.org/2000/svg"
   xmlns:svg="http://www.w3.org/2000/svg">
  <defs
     id="defs8" />
  <sodipodi:namedview
     id="namedview6"
     pagecolor="#ffffff"
     bordercolor="#666666"
     borderopacity="1.0"
     inkscape:showpageshadow="2"
     inkscape:pageopacity="0.0"
     inkscape:pagecheckerboard="0"
     inkscape:deskcolor="#d1d1d1"
     showgrid="false"
     inkscape:zoom="9.8333333"
     inkscape:cx="0.20338983"
     inkscape:cy="10.016949"
     inkscape:window-width="1920"
     inkscape:window-height="1057"
     inkscape:window-x="-8"
     inkscape:window-y="-8"
     inkscape:window-maximized="1"
     inkscape:current-layer="svg4" />
  <path
     d="m 18.5,0 h -17 a 1.5,1.5 0 0 0 -1.5,1.5 v 17 a 1.5,1.5 0 0 0 1.5,1.5 h 17 a 1.5,1.5 0 0 0 1.5,-1.5 v -17 a 1.5,1.5 0 0 0 -1.5,-1.5 z m -12.5,17 h -3 v -9 h 3 z m -1.5,-10.75 a 1.75,1.75 0 1 1 1.8,-1.75 1.78,1.78 0 0 1 -1.8,1.75 z m 12.5,10.75 h -3 v -4.74 c 0,-1.42 -0.6,-1.93 -1.38,-1.93 a 1.74,1.74 0 0 0 -1.62,1.86 0.66,0.66 0 0 0 0,0.14 v 4.67 h -3 v -9 h 2.9 v 1.3 a 3.11,3.11 0 0 1 2.7,-1.4 c 1.55,0 3.36,0.86 3.36,3.66 z"
     id="path2" />
</svg>
