<?xml version="1.0" encoding="UTF-8" standalone="no"?>
<svg
   height="32"
   width="39"
   fill="#fbf1c7"
   version="1.1"
   id="svg4"
   sodipodi:docname="resume.svg"
   inkscape:version="1.2 (dc2aedaf03, 2022-05-15)"
   xmlns:inkscape="http://www.inkscape.org/namespaces/inkscape"
   xmlns:sodipodi="http://sodipodi.sourceforge.net/DTD/sodipodi-0.dtd"
   xmlns="http://www.w3.org/2000/svg"
   xmlns:svg="http://www.w3.org/2000/svg">
  <defs
     id="defs8" />
  <sodipodi:namedview
     id="namedview6"
     pagecolor="#ffffff"
     bordercolor="#666666"
     borderopacity="1.0"
     inkscape:showpageshadow="2"
     inkscape:pageopacity="0.0"
     inkscape:pagecheckerboard="0"
     inkscape:deskcolor="#d1d1d1"
     showgrid="false"
     inkscape:zoom="4.9166667"
     inkscape:cx="1.4237288"
     inkscape:cy="16.169492"
     inkscape:window-width="1920"
     inkscape:window-height="1057"
     inkscape:window-x="-8"
     inkscape:window-y="-8"
     inkscape:window-maximized="1"
     inkscape:current-layer="svg4" />
  <path
     d="m 13.05,32 q -1.2,0 -2.1,-0.9 -0.9,-0.9 -0.9,-2.1 v -5 h 6.2 v -6.35 q -1.9,0.15 -3.8,-0.525 -1.9,-0.675 -3.4,-2.125 v -2.9 h -2.5 l -6.55,-6.55 q 1.8,-1.7 4.3,-2.775 2.5,-1.075 5.1,-1.075 1.5,0 3.425,0.475 1.925,0.475 3.425,1.525 v -3.7 h 22.75 v 26.75 q 0,2.2 -1.525,3.725 -1.525,1.525 -3.725,1.525 z m 6.2,-8 h 12.25 v 2.75 q 0,1 0.625,1.625 0.625,0.625 1.625,0.625 1,0 1.625,-0.625 0.625,-0.625 0.625,-1.625 v -23.75 h -16.75 v 2.85 l 12.05,12.05 v 2.15 h -2.15 l -6.3,-6.3 -0.85,1 q -0.65,0.75 -1.3,1.15 -0.65,0.4 -1.45,0.75 z m -11.35,-14.9 h 4.15 v 4.45 q 0.85,0.55 1.675,0.825 0.825,0.275 1.675,0.275 1.25,0 2.55,-0.675 1.3,-0.675 1.9,-1.375 l 0.85,-1 -3.45,-3.45 q -1.6,-1.6 -3.6,-2.525 -2,-0.925 -4.25,-0.925 -1.35,0 -2.45,0.325 -1.1,0.325 -2.25,0.875 z m 20.6,17.9 h -15.45 v 2 h 16.15 q -0.3,-0.3 -0.5,-0.825 -0.2,-0.525 -0.2,-1.175 z m -15.45,2 v -2 z"
     id="path2" />
</svg>
